# xmcd
#
# Track frame offsets:
#	150
#	13275
#	28125
#	44150
#	59303
#	71135
#	88910
#	102616
#	121741
#	136591
#	151270
#	166755
#	178599
#	192042
#
# Disc length: 2729 seconds
# Revision: 0
# Processed by: cddbd v1.5.2PL0 Copyright (c) Steve Scherf et al.
# Submitted via: dBpowerAMP V12.0
#
DISCID=c00aa70e
DTITLE=Wilson Banjo Co. - Spirits in the Hills
DYEAR=2017
DGENRE=
TTITLE0=40 Years of Trouble
TTITLE1=Catfish John
TTITLE2=Spirits in the Hills
TTITLE3=Carolina in the Pines
TTITLE4=East Fork Creek
TTITLE5=Her Sunday Best
TTITLE6=Railroad Man
TTITLE7=Ain't No Grave
TTITLE8=Ramblin' Fever in My Bones
TTITLE9=Stranded
TTITLE10=I'll Stay Around
TTITLE11=Thumbin' Down from Richmond Town
TTITLE12=Shiner's Mountain
TTITLE13=When He Reached Down His Hand
EXTD=
EXTT0=
EXTT1=
EXTT2=
EXTT3=
EXTT4=
EXTT5=
EXTT6=
EXTT7=
EXTT8=
EXTT9=
EXTT10=
EXTT11=
EXTT12=
EXTT13=
PLAYORDER=
